# xmcd CD database file
#
# Track frame offsets:
#	150
#	19025
#	51729
#	61877
#	94505
#	111813
#	134485
#	163464
#	175667
#	203983
#	211366
#	239772
#
# Disc length: 3470 seconds
#
# Revision: 4
# Processed by: cddbd v1.5.2PL0 Copyright (c) Steve Scherf et al.
# Submitted via: CDex 1.51
#
DISCID=b40d8c0c
DTITLE=Fabricio Conde - Fabricio Conde
DYEAR=2008
DGENRE=Blues
TTITLE0=Quintais de Junho
TTITLE1=O da Vida
TTITLE2=Com o Rosario na Mão
TTITLE3=A Forçado Boi
TTITLE4=Feira Brasil
TTITLE5=Marcha do Retirante
TTITLE6=São Francisco
TTITLE7=Porque Chora se é Baião
TTITLE8=Leve Maria
TTITLE9=Esther
TTITLE10=Ciganos
TTITLE11=Para Aparecido Passear
EXTD=YEAR: 2008
EXTT0=
EXTT1=
EXTT2=
EXTT3=
EXTT4=
EXTT5=
EXTT6=
EXTT7=
EXTT8=
EXTT9=
EXTT10=
EXTT11=
PLAYORDER=
